HIERARCHY
ROOT Hips
{
	OFFSET 0.00000 0.00000 0.00000
	CHANNELS 6 Xposition Yposition Zposition Zrotation Yrotation Xrotation 
	JOINT LHipJoint
	{
		OFFSET 0 0 0
		CHANNELS 3 Zrotation Yrotation Xrotation
		JOINT LeftHip
		{
			OFFSET 1.62964 -1.40469 0.78906
			CHANNELS 3 Zrotation Yrotation Xrotation
			JOINT LeftKnee
			{
				OFFSET 2.29640 -6.30932 0.00000
				CHANNELS 3 Zrotation Yrotation Xrotation
				JOINT LeftAnkle
				{
					OFFSET 2.29451 -6.30412 0.00000
					CHANNELS 3 Zrotation Yrotation Xrotation
					JOINT LeftToe
					{
						OFFSET 0.03611 -0.09921 1.56387
						CHANNELS 3 Zrotation Yrotation Xrotation
						End Site
						{
							OFFSET 0.00000 -0.00000 0.80291
						}
					}
				}
			}
		}
	}
	JOINT RHipJoint
	{
		OFFSET 0 0 0
		CHANNELS 3 Zrotation Yrotation Xrotation
		JOINT RightHip
		{
			OFFSET -1.73712 -1.40469 0.78906
			CHANNELS 3 Zrotation Yrotation Xrotation
			JOINT RightKnee
			{
				OFFSET -2.28137 -6.26801 0.00000
				CHANNELS 3 Zrotation Yrotation Xrotation
				JOINT RightAnkle
				{
					OFFSET -2.28681 -6.28298 0.00000
					CHANNELS 3 Zrotation Yrotation Xrotation
					JOINT RightToe
					{
						OFFSET -0.15927 -0.43759 1.61103
						CHANNELS 3 Zrotation Yrotation Xrotation
						End Site
						{
							OFFSET -0.00000 -0.00000 0.84630
						}
					}
				}
			}
		}
	}
	JOINT lowerback
	{
		OFFSET 0 0 0
		CHANNELS 3 Zrotation Yrotation Xrotation
		JOINT Chest
		{
			OFFSET -0.04227 2.04338 -0.00225
			CHANNELS 3 Zrotation Yrotation Xrotation
			JOINT Chest2
			{
				OFFSET -0.02148 2.04482 -0.04273
				CHANNELS 3 Zrotation Yrotation Xrotation
				JOINT lowerneck
				{
					OFFSET 0 0 0
					CHANNELS 3 Zrotation Yrotation Xrotation
					JOINT Neck
					{
						OFFSET 0.09180 1.44629 0.19359
						CHANNELS 3 Zrotation Yrotation Xrotation
						JOINT Head
						{
							OFFSET 0.00887 1.40645 0.14750
							CHANNELS 3 Zrotation Yrotation Xrotation
							End Site
							{
								OFFSET -0.00669 1.50671 0.03707
							}
						}
					}
				}
				JOINT LeftCollar
				{
					OFFSET 0 0 0
					CHANNELS 3 Zrotation Yrotation Xrotation
					JOINT LeftShoulder
					{
						OFFSET 2.17674 1.86763 -0.06520
CHANNELS 3 Zrotation Xrotation Yrotation
						JOINT LeftElbow
						{
OFFSET 0 -4.657760 0.000000
CHANNELS 3 Zrotation Xrotation Yrotation
							JOINT LeftWrist
							{
OFFSET 0 -3.555390 0.000000
CHANNELS 3 Zrotation Xrotation Yrotation
								JOINT lhand
								{
									OFFSET 0 0 0
CHANNELS 3 Zrotation Xrotation Yrotation
									JOINT LFingers
									{
OFFSET 0 -0.707260 0.000000
CHANNELS 3 Zrotation Xrotation Yrotation
										End Site
										{
OFFSET 0 -0.570220 0.000000
										}
									}
								}
								JOINT LThumb
								{
OFFSET 0 0.000000 0.000000
CHANNELS 3 Zrotation Xrotation Yrotation
									End Site
									{
OFFSET 0 -0.578920 0.578920
									}
								}
							}
						}
					}
				}
				JOINT RightCollar
				{
					OFFSET 0 0 0
					CHANNELS 3 Zrotation Yrotation Xrotation
					JOINT RightShoulder
					{
						OFFSET -2.80694 1.55459 -0.32496
CHANNELS 3 Zrotation Xrotation Yrotation
						JOINT RightElbow
						{
OFFSET 0 -4.719250 -0.000000
CHANNELS 3 Zrotation Xrotation Yrotation
							JOINT RightWrist
							{
OFFSET 0 -3.569900 0.000000
CHANNELS 3 Zrotation Xrotation Yrotation
								JOINT rhand
								{
									OFFSET 0 0 0
CHANNELS 3 Zrotation Xrotation Yrotation
									JOINT RFingers
									{
OFFSET 0 -0.507760 0.000000
CHANNELS 3 Zrotation Xrotation Yrotation
										End Site
										{
OFFSET 0 -0.409370 0.000000
										}
									}
								}
								JOINT RThumb
								{
OFFSET 0 0.000000 0.000000
CHANNELS 3 Zrotation Xrotation Yrotation
									End Site
									{
OFFSET 0 -0.415620 0.415620
									}
								}
							}
						}
					}
				}
			}
		}
	}
}
MOTION
Frames: 13
Frame Time: .0083333
5.1365 16.9369 15.5238 189.4280 -26.6599 -158.7900 0.0000 0.0000 0.0000 23.3950 -30.7569 -14.9790 3.6268 11.6464 34.4924 4.1891 -5.6355 -37.6961 5.7767 -14.2084 -44.0789 0.0000 0.0000 0.0000 -15.6470 14.9890 -30.7735 -0.0400 -1.2903 3.5479 3.7211 -35.8850 -33.1440 -5.1605 -13.5623 41.5115 -19.9800 -9.6811 -15.7219 -3.3258 -9.3133 1.3760 4.4287 -5.7230 13.0484 -0.3088 -4.9706 -2.4910 8.7199 -11.0438 22.9656 1.9593 -5.3729 8.0329 -0.0000 -0.0000 0.0000 68.7013 10.464 -39.1271 36.6242 -45.9377 15.9694 25.5797 -18.2192 15.112 0.0 0.0 0.0 -7.1250 0.0 0.0 -1.3545 13.316 -1.0064 -0.0000 -0.0000 0.0000 -9.2516 45.5688 -9.9214 -48.4987 -52.3717 -24.9801 -12.6057 -3.7022 52.9992 0.0 0.0 0.0 7.1250 0.0 -0.0 66.5505 75.961 -52.7143
5.2585 16.8326 15.4237 188.3380 -27.0797 -158.1370 0.0000 0.0000 0.0000 23.3516 -30.7579 -15.3155 3.5937 11.5992 34.3285 4.1929 -5.0264 -37.8105 6.5038 -14.8994 -46.9715 0.0000 0.0000 0.0000 -15.3749 13.6447 -31.3937 -0.0722 -1.7337 4.7704 4.8735 -37.4587 -29.0469 -4.7399 -13.0847 39.6864 -19.9519 -9.6370 -15.5041 -3.4654 -9.2904 1.5314 4.2773 -5.7178 13.0731 -0.3317 -5.0650 -3.1803 8.6473 -11.0809 22.9487 1.9122 -5.3388 8.1506 -0.0000 -0.0000 0.0000 68.7223 9.9192 -38.8881 36.0741 -45.564 15.5754 25.2396 -17.8738 14.9699 0.0 0.0 0.0 -7.1250 0.0 0.0 -1.5723 13.5162 -1.1617 -0.0000 -0.0000 0.0000 -8.0838 45.5473 -10.0587 -47.1881 -51.7965 -23.9461 -12.1926 -2.4844 52.7089 0.0 0.0 0.0 7.1250 0.0 -0.0 65.6161 75.7141 -51.597
5.3791 16.7250 15.3254 187.2900 -27.5251 -157.5030 0.0000 0.0000 0.0000 23.4084 -30.7978 -15.7218 3.5812 11.5813 34.2663 4.2049 -5.7357 -37.7562 6.4431 -14.8444 -46.7350 0.0000 0.0000 0.0000 -15.0147 12.4624 -31.8489 -0.1107 -2.1450 5.9067 5.6787 -38.5845 -25.1561 -4.4476 -12.7334 38.3784 -19.9438 -9.5963 -15.1928 -3.5840 -9.3693 1.2407 4.2004 -5.7202 12.5321 -0.3894 -5.0770 -2.2248 8.5217 -11.0478 22.7353 1.9241 -5.3889 7.8980 0.0000 -0.0000 0.0000 68.7419 9.9721 -39.3527 35.5632 -45.2101 15.2117 24.8301 -17.6154 15.363 0.0 0.0 0.0 -7.1250 0.0 0.0 -1.8783 13.1434 -1.4028 0.0000 -0.0000 0.0000 -7.1735 46.487 -9.795 -46.0669 -51.2806 -23.0682 -12.0777 -1.2574 52.4588 0.0 0.0 0.0 7.1250 0.0 -0.0 64.7291 75.5894 -50.6603
5.5027 16.6140 15.2196 186.3400 -27.9498 -156.9540 0.0000 0.0000 0.0000 23.5664 -30.7542 -16.0806 3.5729 11.5692 34.2247 4.2284 -6.6927 -37.7356 6.2918 -14.7053 -46.1419 0.0000 0.0000 0.0000 -14.2972 11.1079 -32.4792 -0.1733 -2.6816 7.3937 6.1322 -39.1944 -21.0523 -4.2183 -12.4453 37.3261 -19.7793 -9.5590 -14.8693 -3.6028 -9.4590 1.0533 4.1441 -5.7261 12.1090 -0.7325 -5.1110 -1.9216 8.3944 -11.0274 22.7471 1.9540 -5.4213 7.8538 -0.0000 -0.0000 0.0000 68.5074 10.0339 -39.5355 34.9753 -44.7945 14.796 24.6768 -17.4547 16.0257 0.0 0.0 0.0 -7.1250 0.0 0.0 -2.0328 12.4465 -1.5479 -0.0000 -0.0000 0.0000 -6.555 47.0597 -9.3425 -45.0196 -50.7781 -22.2539 -11.6772 -0.6444 51.8414 0.0 0.0 0.0 7.1250 0.0 -0.0 62.6797 75.2208 -48.4303
5.6264 16.4973 15.1136 185.2930 -28.3207 -156.3400 0.0000 0.0000 0.0000 23.6209 -30.6562 -16.4852 3.5842 11.5856 34.2812 4.2535 -7.3203 -37.7785 6.3390 -14.7490 -46.3275 0.0000 0.0000 0.0000 -13.1799 8.9556 -33.7430 -0.3029 -3.5388 9.7826 5.4969 -37.4187 -17.9055 -3.4245 -11.3524 33.4779 -19.6078 -9.5115 -14.6915 -3.6347 -9.4602 1.0868 4.0476 -5.7128 12.0121 -1.0414 -5.2243 -2.5285 8.1486 -11.0863 23.0121 1.8945 -5.4376 8.0552 0.0000 0.0000 0.0000 68.2926 9.8742 -39.459 34.4359 -44.4051 14.4172 24.918 -17.6181 16.4272 0.0 0.0 0.0 -7.1250 0.0 0.0 -1.9048 11.9782 -1.4689 0.0000 0.0000 0.0000 -5.916 47.1034 -8.8688 -44.1089 -50.3244 -21.5507 -10.8361 -0.433 51.4279 0.0 0.0 0.0 7.1250 0.0 -0.0 61.7136 74.7437 -47.0671
5.7482 16.3788 15.0122 184.2160 -28.6119 -155.6190 0.0000 0.0000 0.0000 23.6477 -30.5166 -17.0072 3.6238 11.6422 34.4777 4.2604 -7.7418 -37.7654 6.4091 -14.8134 -46.6023 0.0000 0.0000 0.0000 -11.5981 6.0506 -35.7059 -0.5436 -4.7237 13.1222 3.2609 -30.7681 -20.0472 -2.1068 -9.0850 26.0617 -19.4376 -9.5565 -14.6319 -3.5967 -9.5309 1.2612 3.9660 -5.7482 12.1839 -1.4760 -5.3257 -3.6530 7.9690 -11.0943 23.3115 1.8611 -5.4041 8.3715 -0.0000 -0.0000 0.0000 67.8814 9.7673 -38.899 33.9411 -44.0411 14.0721 25.1738 -17.8681 16.672 0.0 0.0 0.0 -7.1250 0.0 0.0 -1.7558 11.6764 -1.3648 -0.0000 -0.0000 0.0000 -5.8117 46.6069 -7.7899 -43.1687 -49.8391 -20.8296 -10.0347 -0.1401 51.6092 0.0 0.0 0.0 7.1250 0.0 -0.0 62.8017 74.5106 -47.7767
5.8665 16.2602 14.9183 183.1140 -28.8227 -154.8270 0.0000 0.0000 0.0000 23.6309 -30.4183 -17.6432 3.6818 11.7244 34.7640 4.2810 -7.5727 -37.8806 6.6780 -15.0547 -47.6458 0.0000 0.0000 0.0000 -9.8061 2.8139 -38.1253 -0.9170 -6.1014 17.0788 2.2584 -27.2754 -21.4086 -0.3497 -3.7995 10.5134 -19.0008 -9.5585 -14.5538 -3.6000 -9.5555 1.6890 3.6910 -5.7631 12.5839 -1.4687 -5.5202 -5.4066 7.5264 -10.9937 23.0460 1.6657 -5.2548 8.5684 0.0000 0.0000 0.0000 67.3302 9.3041 -37.6468 33.3066 -43.5644 13.6329 25.4449 -18.0186 16.9053 0.0 0.0 0.0 -7.1250 0.0 0.0 -1.5969 11.3835 -1.2508 0.0000 0.0000 0.0000 -5.7448 45.1255 -6.7559 -41.8408 -49.1235 -19.8201 -8.9508 -0.1775 51.7669 0.0 0.0 0.0 7.1250 0.0 -0.0 63.9595 74.1636 -48.425
5.9836 16.1418 14.8361 181.9050 -29.0741 -154.0060 0.0000 0.0000 0.0000 23.5539 -30.4897 -18.4268 3.7687 11.8461 35.1896 4.3209 -7.4641 -38.0799 6.8408 -15.1964 -48.2697 0.0000 0.0000 0.0000 -9.3825 1.0934 -39.4808 -1.2087 -6.9746 19.6401 2.2860 -26.4562 -17.7262 -2.5109 9.8577 -28.5172 -18.7296 -9.4731 -14.3108 -3.7395 -9.5726 1.5408 3.4573 -5.7338 12.1914 -1.2292 -5.6367 -5.0320 7.0921 -11.0158 22.7718 1.5021 -5.2896 8.3676 0.0000 0.0000 0.0000 67.0818 9.3424 -37.5633 32.8188 -43.1903 13.2979 25.5601 -17.9713 17.0411 0.0 0.0 0.0 -7.1250 0.0 0.0 -1.5331 11.2189 -1.206 0.0000 0.0000 0.0000 -5.3739 44.9879 -5.8289 -40.6564 -48.454 -18.9291 -7.9028 -0.434 51.7065 0.0 0.0 0.0 7.1250 0.0 -0.0 64.3685 73.7517 -48.3346
6.1037 16.0271 14.7678 180.6860 -29.3710 -153.1410 0.0000 0.0000 0.0000 23.6075 -30.6421 -19.4302 3.8872 12.0087 35.7628 4.3447 -7.6379 -38.1723 6.8641 -15.2164 -48.3584 0.0000 0.0000 0.0000 -9.6545 0.0015 -40.2811 -1.3561 -7.3714 20.8205 1.7307 -24.8645 -21.0246 -2.1251 9.1220 -26.1778 -18.3952 -9.4027 -13.9160 -3.8415 -9.6499 1.4074 3.2372 -5.7286 11.7409 -1.3543 -5.7615 -5.2027 6.8697 -11.1088 22.8568 1.4340 -5.3418 8.4248 0.0000 0.0000 0.0000 66.5638 9.3369 -37.1409 32.2641 -42.7567 12.9198 25.4582 -17.7286 17.0271 0.0 0.0 0.0 -7.1250 0.0 0.0 -1.5991 11.2493 -1.2569 0.0000 0.0000 0.0000 -5.2143 44.5759 -4.6439 -39.5622 -47.8084 -18.1142 -8.8538 0.7565 51.7459 0.0 0.0 0.0 7.1250 0.0 -0.0 63.9461 74.1197 -48.365
6.2166 15.9113 14.6993 179.6380 -29.0905 -152.4420 0.0000 0.0000 0.0000 23.3047 -30.4547 -19.7882 3.9603 12.1073 36.1127 4.3761 -7.2960 -38.3567 7.0116 -15.3417 -48.9182 0.0000 0.0000 0.0000 -9.7752 -1.0700 -41.4379 -1.5040 -7.7458 21.9446 0.8483 -22.1746 -24.6283 -0.8974 6.0377 -16.8940 -17.9592 -9.1780 -13.7378 -3.9872 -9.4727 1.3570 2.9588 -5.6084 11.4347 -1.6510 -5.8621 -5.3933 6.8667 -11.1437 22.7214 1.4741 -5.3585 8.4301 0.0000 0.0000 0.0000 65.8981 9.3442 -36.4881 31.6868 -42.2961 12.5295 25.3735 -17.8751 17.0299 0.0 0.0 0.0 -7.1250 0.0 0.0 -1.6552 11.259 -1.3007 0.0000 0.0000 0.0000 -5.3011 43.6334 -3.3592 -38.2339 -46.988 -17.1364 -9.7484 1.9694 51.5326 0.0 0.0 0.0 7.1250 0.0 -0.0 62.7145 74.3741 -47.5522
6.3251 15.8032 14.6336 178.4570 -28.6466 -152.0470 0.0000 0.0000 0.0000 22.4555 -30.4748 -19.4824 3.9990 12.1591 36.2970 4.3948 -6.6294 -38.5256 7.2167 -15.5117 -49.6893 0.0000 0.0000 0.0000 -10.1779 -2.1761 -42.3598 -1.6741 -8.1514 23.1750 0.6471 -20.9935 -24.3776 -1.4783 7.6825 -21.7537 -17.7572 -8.8804 -13.2247 -4.2058 -9.2155 1.4519 2.7721 -5.4719 11.1202 -1.6725 -5.9591 -5.4335 6.7272 -11.1430 22.3949 1.4377 -5.3551 8.3183 0.0000 -0.0000 0.0000 65.1578 9.3722 -35.6975 31.1671 -41.873 12.1812 25.5805 -18.4909 17.0442 0.0 0.0 0.0 -7.1250 0.0 0.0 -1.5199 11.2125 -1.1958 0.0000 -0.0000 0.0000 -5.4484 42.3495 -2.1021 -36.8355 -46.0792 -16.1214 -8.9969 1.9303 50.9468 0.0 0.0 0.0 7.1250 0.0 -0.0 61.2603 73.8592 -45.722
6.4318 15.7058 14.5792 177.2120 -28.1492 -151.7560 0.0000 0.0000 0.0000 21.4190 -30.3727 -19.1066 4.0281 12.1977 36.4349 4.3943 -6.2124 -38.5792 7.5293 -15.7619 -50.8489 0.0000 0.0000 0.0000 -10.9175 -3.3114 -43.4689 -1.9453 -8.7512 25.0200 0.1851 -19.0033 -25.3407 -1.7472 8.3183 -23.6850 -17.7032 -8.5817 -12.3863 -4.4009 -9.0094 1.5396 2.7167 -5.3634 10.6511 -1.6160 -6.0618 -5.4911 6.5035 -11.1393 22.0544 1.3615 -5.3509 8.1961 0.0000 0.0000 0.0000 64.243 9.4576 -34.8055 30.6164 -41.4159 11.8153 25.9951 -18.9403 16.7755 0.0 0.0 0.0 -7.1250 0.0 0.0 -1.2214 11.4425 -0.955 0.0000 0.0000 0.0000 -5.7971 40.9856 -0.6151 -35.6223 -45.2514 -15.2536 -9.099 2.3837 51.0244 0.0 0.0 0.0 7.1250 0.0 -0.0 61.4444 73.9293 -45.9578
6.5359 15.6180 14.5391 176.2060 -27.4559 -151.4460 0.0000 0.0000 0.0000 20.5843 -29.7838 -18.9926 4.0835 12.2707 36.6965 4.4011 -6.1003 -38.6267 7.8472 -16.0057 -52.0103 0.0000 0.0000 0.0000 -11.5083 -4.5379 -45.5747 -2.4106 -9.6735 27.9259 -0.1367 -16.7662 -24.9931 -2.0009 8.8679 -25.3830 -17.4596 -8.2790 -11.5950 -4.5413 -8.8289 1.5127 2.6238 -5.2464 10.0617 -1.8460 -6.1040 -5.3277 6.6557 -11.0849 21.5127 1.4701 -5.3275 8.0024 0.0000 0.0000 0.0000 63.2622 9.7551 -33.95 30.0519 -40.9379 11.4436 26.1836 -19.2584 16.262 0.0 0.0 0.0 -7.1250 0.0 0.0 -1.0494 11.9749 -0.809 0.0000 0.0000 0.0000 -6.3802 39.4937 1.0614 -34.4431 -44.4103 -14.4222 -9.6904 3.4916 51.6041 0.0 0.0 0.0 7.1250 0.0 -0.0 62.9855 74.3792 -47.7971
